<svg id="Layer_1" data-name="Layer 1" xmlns="http://www.w3.org/2000/svg" viewBox="0 0 924 631"><defs><style>.cls-1{fill:#ea4535;}.cls-2{fill:#557ebf;}.cls-3{fill:#f9bc15;}.cls-4{fill:#059d57;}</style></defs><path class="cls-1" d="M243.16,299l144.23-83.27a71,71,0,1,0-71-122.91L67.21,236.68Z"/><path class="cls-2" d="M351.84,513a71,71,0,0,0,35.55-132.43L138.17,236.68a71,71,0,0,0-71,122.92L316.42,503.48A70.69,70.69,0,0,0,351.84,513Z"/><path class="cls-3" d="M599.74,513a70.69,70.69,0,0,0,35.42-9.52L884.37,359.6,710.65,296,564.2,380.57A71,71,0,0,0,599.74,513Z"/><path class="cls-4" d="M848.82,369.12a71,71,0,0,0,35.55-132.44L635.16,92.8a71,71,0,1,0-71,122.91L813.41,359.6A70.65,70.65,0,0,0,848.82,369.12Z"/></svg>