<svg id="Layer_1" data-name="Layer 1" xmlns="http://www.w3.org/2000/svg" viewBox="0 0 1080 543"><defs><style>.cls-1{fill:#e94435;}.cls-2{fill:#547dbe;}.cls-3{fill:#f8bb15;}.cls-4{fill:#059d57;}</style></defs><path class="cls-1" d="M269.19,274.11l167.9-96.94A82.61,82.61,0,0,0,354.48,34.08L64.36,201.59Z"/><path class="cls-2" d="M395.7,523.25a82.62,82.62,0,0,0,41.39-154.17L147,201.59A82.61,82.61,0,1,0,64.36,344.67l290.12,167.5A82.23,82.23,0,0,0,395.7,523.25Z"/><path class="cls-3" d="M684.3,523.25a82.29,82.29,0,0,0,41.23-11.08l290.11-167.5-202.23-74-170.5,98.43A82.62,82.62,0,0,0,684.3,523.25Z"/><path class="cls-4" d="M974.26,355.76a82.62,82.62,0,0,0,41.38-154.17L725.53,34.08a82.61,82.61,0,0,0-82.62,143.09L933,344.67A82.27,82.27,0,0,0,974.26,355.76Z"/></svg>